<svg width="222" height="227" viewBox="0 0 222 227" fill="none" xmlns="http://www.w3.org/2000/svg">
<g clip-path="url(#clip0_1_1629)">
<path d="M29.6527 159.744C40.7808 153.906 47.7257 145.228 45.1646 140.361C42.6036 135.494 31.5064 136.282 20.3783 142.121C9.25031 147.959 2.30539 156.638 4.86644 161.504C7.4275 166.371 18.5247 165.583 29.6527 159.744Z" fill="#E4C276"/>
<path d="M42.4381 135.15L2.08051 156.217L4.81075 161.432L45.1683 140.365L42.4381 135.15Z" fill="#E4C276"/>
<path d="M26.8698 154.454C37.9978 148.616 44.9427 139.938 42.3817 135.071C39.8206 130.204 28.7234 130.992 17.5954 136.831C6.46734 142.669 -0.477564 151.348 2.08349 156.214C4.64454 161.081 15.7417 160.293 26.8698 154.454Z" fill="#FBD77D"/>
<path d="M200.578 73.311C207.924 71.0657 213.588 68.2975 213.23 67.1282C212.871 65.9588 206.625 66.831 199.28 69.0763C191.934 71.3216 186.269 74.0897 186.628 75.2591C186.986 76.4285 193.232 75.5563 200.578 73.311Z" fill="#E4C276"/>
<path d="M212.314 64.145L185.714 72.2757L186.628 75.2589L213.229 67.1282L212.314 64.145Z" fill="#E4C276"/>
<path d="M199.663 70.3273C207.009 68.082 212.674 65.3138 212.315 64.1445C211.957 62.9751 205.711 63.8473 198.365 66.0926C191.019 68.3379 185.355 71.106 185.713 72.2754C186.072 73.4448 192.317 72.5726 199.663 70.3273Z" fill="#FBD77D"/>
<path d="M39.7186 111.729C40.4349 110.153 32.9906 105.239 23.0913 100.753C13.192 96.2668 4.58636 93.9079 3.87006 95.4838C3.15376 97.0598 10.5981 101.974 20.4974 106.46C30.3967 110.946 39.0023 113.305 39.7186 111.729Z" fill="#E4C276"/>
<path d="M5.69824 91.4632L3.87103 95.4834L39.7196 111.728L41.5468 107.708L5.69824 91.4632Z" fill="#E4C276"/>
<path d="M41.5467 107.708C42.263 106.132 34.8187 101.217 24.9194 96.7316C15.0201 92.2457 6.41445 89.8867 5.69815 91.4627C4.98186 93.0387 12.4262 97.9528 22.3255 102.439C32.2248 106.925 40.8304 109.284 41.5467 107.708Z" fill="#FBD77D"/>
<path d="M219.821 113.576C221.571 109.191 214.861 102.404 204.834 98.4154C194.808 94.4273 185.261 94.749 183.512 99.1341C181.763 103.519 188.473 110.307 198.499 114.295C208.526 118.283 218.072 117.961 219.821 113.576Z" fill="#E4C276"/>
<path d="M185.349 94.4191L183.486 99.1165L219.841 113.489L221.703 108.791L185.349 94.4191Z" fill="#E4C276"/>
<path d="M221.723 108.811C223.472 104.425 216.762 97.6377 206.736 93.6496C196.709 89.6614 187.163 89.9832 185.413 94.3682C183.664 98.7533 190.374 105.541 200.4 109.529C210.427 113.517 219.973 113.196 221.723 108.811Z" fill="#FBD77D"/>
<path d="M151.286 188.078L73.9652 188.234C66.5941 188.249 60.6072 182.294 60.5923 174.934L60.2672 13.5084C60.2523 6.14819 66.2157 0.170248 73.5869 0.155351L150.908 -2.62668e-06C158.279 -0.0148996 164.266 5.93963 164.281 13.2998L164.606 174.725C164.621 182.086 158.657 188.064 151.286 188.078Z" fill="#3A3A3A"/>
<path d="M148.512 183.883L76.721 184.026C70.0222 184.04 64.5799 178.628 64.5671 171.939L64.2549 16.6133C64.2411 9.92457 69.661 4.49037 76.3608 4.4776L148.152 4.33395C154.851 4.32012 160.293 9.73197 160.306 16.4218L160.618 171.747C160.632 178.436 155.212 183.87 148.512 183.883Z" fill="#F1F2ED"/>
<path d="M135.005 8.94882L90.7802 9.03713C90.2506 9.0382 89.8211 8.61044 89.82 8.08266L89.8115 3.58591C89.8115 3.05707 90.2388 2.62825 90.7674 2.62718L134.992 2.53886C135.522 2.53886 135.951 2.96556 135.952 3.49333L135.961 7.99009C135.961 8.51893 135.534 8.94775 135.005 8.94882Z" fill="#3A3A3A"/>
<path d="M150.581 97.755H77.9561C76.8967 97.755 76.0379 98.6125 76.0379 99.6703V101.224C76.0379 102.282 76.8967 103.139 77.9561 103.139H150.581C151.64 103.139 152.499 102.282 152.499 101.224V99.6703C152.499 98.6125 151.64 97.755 150.581 97.755Z" fill="#252A30" stroke="#7C7779" stroke-width="0.72" stroke-miterlimit="10"/>
<path d="M132.345 72.2787C143.093 61.5472 143.093 44.1481 132.345 33.4167C121.598 22.6852 104.173 22.6852 93.4254 33.4167C82.6779 44.1481 82.6779 61.5472 93.4254 72.2787C104.173 83.0101 121.598 83.0101 132.345 72.2787Z" stroke="#C6DCC3" stroke-width="14.45" stroke-miterlimit="10"/>
<path d="M104.703 66.3128L93.6916 57.2671C91.978 55.92 91.8 53.4035 93.3079 51.8404L96.2374 48.7141C97.1166 47.8033 98.5201 47.633 99.5985 48.3055L106.137 53.2173C108.048 54.4101 110.534 54.1185 112.105 52.5171L122.511 42.3436C124.113 40.7102 126.734 40.641 128.43 42.1861L131.69 45.39C133.386 46.9361 132.47 49.193 130.719 50.6688L114.213 65.8957C111.934 67.8163 107.054 68.1611 104.703 66.3138V66.3128Z" fill="#90C859"/>
<path d="M124.477 200.183C122.966 200.4 79.4704 199.552 79.4704 199.552L96.1096 189.148L124.477 200.183Z" fill="#B2B2B1"/>
<path d="M0 211.682L54.2228 219.696L65.5678 226.692C43.1741 225.444 17.8381 222.122 0.00106566 211.683L0 211.682Z" fill="#B2B2B1"/>
<path d="M85.7855 98.6924H151.078C144.801 101.107 139.562 105.29 135.177 110.922C131.291 115.795 124.884 124.533 131.462 137.942C135.622 144.091 142.695 150.114 146.546 160.786C152.138 181.384 140.799 198.345 124.516 200.184C117.802 199.869 111.29 197.701 106.316 195.844C102.82 194.361 94.5899 192.557 91.1084 194.764C88.2802 196.557 86.4281 198.278 84.674 201.243C83.3014 203.564 82.4116 206.694 81.6752 209.287L79.4235 217.223C79.0228 218.634 77.9561 221.072 76.9362 222.127C74.0409 225.12 71.6325 227.188 64.3039 226.987C57.1342 226.008 56.0962 224.564 52.3952 220.486L0 211.682C0.905809 211.435 24.67 217.844 35.8786 205.233C41.4488 198.966 44.6489 192.257 47.4623 186.195C49.4103 181.998 53.7156 176.574 60.686 175.55C77.4978 174.117 84.2115 175.022 88.4113 165.09C93.358 142.136 69.1473 143.886 68.0529 122.854C69.174 108.797 76.2969 103.628 85.7844 98.6924H85.7855Z" fill="#E1E1DE"/>
<path d="M120.434 106.814H86.9353C86.4957 106.814 86.1393 107.17 86.1393 107.609V107.782C86.1393 108.221 86.4957 108.577 86.9353 108.577H120.434C120.874 108.577 121.23 108.221 121.23 107.782V107.609C121.23 107.17 120.874 106.814 120.434 106.814Z" fill="#8F9498"/>
<path d="M116.221 113.865H82.7217C82.2821 113.865 81.9257 114.221 81.9257 114.66V114.832C81.9257 115.271 82.2821 115.627 82.7217 115.627H116.221C116.66 115.627 117.017 115.271 117.017 114.832V114.66C117.017 114.221 116.66 113.865 116.221 113.865Z" fill="#8F9498"/>
<path d="M122.027 129.132H88.5285C88.0888 129.132 87.7324 129.488 87.7324 129.927V130.099C87.7324 130.538 88.0888 130.894 88.5285 130.894H122.027C122.467 130.894 122.823 130.538 122.823 130.099V129.927C122.823 129.488 122.467 129.132 122.027 129.132Z" fill="#8F9498"/>
</g>
<defs>
<clipPath id="clip0_1_1629">
<rect width="222" height="227" fill="white"/>
</clipPath>
</defs>
</svg>
